<?xml version="1.0"?>
<svg xmlns="http://www.w3.org/2000/svg" id="Filled" viewBox="0 0 512 512" width="512" height="512"><path d="M141.766,168H82.234a32,32,0,0,1-31.379-25.724L24,24H200L173.145,142.276A32,32,0,0,1,141.766,168Z" style="fill:#e9eef2"/><path d="M88,168h48a0,0,0,0,1,0,0V464a24,24,0,0,1-24,24h0a24,24,0,0,1-24-24V168A0,0,0,0,1,88,168Z" style="fill:#e1e3e6"/><path d="M136,312V464a24,24,0,0,1-48,0V312Z" style="fill:#7e8589"/><path d="M424,488h0c-13.255,0-24-11.143-24-24.889V264h48V463.111C448,476.857,437.255,488,424,488Z" style="fill:#e1e3e6"/><path d="M448,304V463.11c0,13.75-10.75,24.89-24,24.89s-24-11.14-24-24.89V304Z" style="fill:#7e8589"/><path d="M256,488h0c-13.255,0-24-11.143-24-24.889V264h48V463.111C280,476.857,269.255,488,256,488Z" style="fill:#e1e3e6"/><path d="M280,304V463.11c0,13.75-10.75,24.89-24,24.89s-24-11.14-24-24.89V304Z" style="fill:#7e8589"/><path d="M328,264H232V24h0a73.1,73.1,0,0,1,72.458,63.439Z" style="fill:#e9eef2"/><path d="M200,16H24a8,8,0,0,0-7.8,9.771L43.032,143.952A40.116,40.116,0,0,0,80,175.93V464a32,32,0,0,0,64,0V175.93a40.116,40.116,0,0,0,36.968-31.978L207.8,25.771A8,8,0,0,0,200,16ZM128,464a16,16,0,0,1-32,0V320h32Zm0-160H96V176h32Zm37.343-163.5c-.015.067-.03.135-.043.2A24.064,24.064,0,0,1,141.767,160H82.233A24.064,24.064,0,0,1,58.7,140.707c-.013-.068-.028-.136-.043-.2L34.021,32H189.979Z"/><path d="M424,16c-40.374,0-72,56.225-72,128,0,51.217,16.106,94.508,40,115.11v204C392,481.246,406.355,496,424,496s32-14.754,32-32.889v-204c23.894-20.6,40-63.893,40-115.11C496,72.225,464.374,16,424,16ZM399.185,230.422a165.856,165.856,0,0,0,4.4,17.57C382.977,231.287,368,190.4,368,144s14.978-87.289,35.59-103.993a165.478,165.478,0,0,0-4.4,17.571C394.552,80.744,392,111.436,392,144S394.552,207.256,399.185,230.422ZM440,463.111c0,9.313-7.178,16.889-16,16.889s-16-7.576-16-16.889V312h32ZM440,296H408V268.948a43.466,43.466,0,0,0,32,0Zm-5.891-73.946c-3.6,20.355-7.793,29.593-10.109,32.873-2.316-3.28-6.511-12.518-10.109-32.873C410.092,200.569,408,172.85,408,144s2.092-56.569,5.891-78.054c3.6-20.355,7.793-29.593,10.109-32.873,2.316,3.28,6.511,12.518,10.109,32.873C437.908,87.431,440,115.15,440,144S437.908,200.569,434.109,222.054Zm10.308,25.933a165.947,165.947,0,0,0,4.4-17.565C453.448,207.256,456,176.564,456,144s-2.552-63.256-7.185-86.422a165.6,165.6,0,0,0-4.4-17.568C465.023,56.716,480,97.606,480,144S465.025,231.279,444.417,247.987Z"/><path d="M312.388,86.381A81.354,81.354,0,0,0,232,16a8,8,0,0,0-8,8V463.111C224,481.246,238.355,496,256,496s32-14.754,32-32.889V272h40a8,8,0,0,0,7.93-9.058ZM272,463.111c0,9.313-7.178,16.889-16,16.889s-16-7.576-16-16.889V312h32ZM272,296H240V272h32Zm-32-40V32.495a65.344,65.344,0,0,1,56.528,56L318.862,256Z"/><path d="M112,128a8,8,0,0,0,8-8V72a8,8,0,0,0-16,0v48A8,8,0,0,0,112,128Z"/><path d="M142.685,127.892a8,8,0,0,0,9.207-6.577l8-48a8,8,0,0,0-15.784-2.63l-8,48A8,8,0,0,0,142.685,127.892Z"/><path d="M72.108,121.315A8,8,0,0,0,79.99,128a8.185,8.185,0,0,0,1.325-.109,8,8,0,0,0,6.577-9.207l-8-48a8,8,0,1,0-15.784,2.63Z"/></svg>
